<svg xmlns="http://www.w3.org/2000/svg" viewBox="0 0 64 64" className="w-5 h-5" role="img" aria-label="ERP logo">
            <defs>
              <linearGradient id="g1" x1="0" x2="1" y1="0" y2="1">
                <stop offset="0%" stopColor="#0ea5a4" />
                <stop offset="100%" stopColor="#0369a1" />
              </linearGradient>
              <linearGradient id="g2" x1="0" x2="1" y1="0" y2="1">
                <stop offset="0%" stopColor="#34d399" />
                <stop offset="100%" stopColor="#0ea5a4" />
              </linearGradient>
            </defs>

            {/* stylized 3D cube */}
            <g transform="translate(8,6)">
              <path d="M24 2 L44 12 L24 22 L4 12 Z" fill="url(#g1)" />
              <path d="M24 22 L44 12 L44 34 L24 44 L4 34 L4 12 Z" fill="url(#g2)" opacity="0.95" />
              <path d="M24 2 L24 22 L44 12 Z" fill="#075985" opacity="0.9" />
            </g>

            {/* small gear-like shape to suggest settings/ERP */}
            <g transform="translate(36,36)">
              <circle cx="0" cy="0" r="6" fill="#ffffff" opacity="0.92" />
              <circle cx="0" cy="0" r="3.2" fill="#0369a1" />
              {/* gear teeth */}
              <g fill="#0369a1">
                <rect x="-0.8" y="-10.2" width="1.6" height="3" rx=".3" transform="rotate(0)" />
                <rect x="-0.8" y="7.2" width="1.6" height="3" rx=".3" transform="rotate(0)" />
                <rect x="7.2" y="-0.8" width="3" height="1.6" rx=".3" transform="rotate(0)" />
                <rect x="-10.2" y="-0.8" width="3" height="1.6" rx=".3" transform="rotate(0)" />
              </g>
            </g>
          </svg>